<svg width="563" height="16" viewBox="0 0 563 16" fill="none" xmlns="http://www.w3.org/2000/svg">
<g clip-path="url(#clip0_1170_208)">
<path d="M0 14C6.26128 14 5.96094 2 12.2222 2C18.4835 2 18.1832 14 24.4444 14C30.7057 14 30.4054 2 36.6667 2C42.9279 2 42.6276 14 48.8889 14C55.1502 14 54.8498 2 61.1111 2C67.3724 2 67.072 14 73.3333 14C79.5946 14 79.2943 2 85.5556 2C91.8168 2 91.5165 14 97.7778 14C104.039 14 103.739 2 110 2C116.261 2 115.961 14 122.222 14C128.484 14 128.183 2 134.444 2C140.706 2 140.405 14 146.667 14C152.928 14 152.628 2 158.889 2C165.15 2 164.85 14 171.111 14C177.372 14 177.072 2 183.333 2C189.595 2 189.294 14 195.556 14C201.817 14 201.516 2 207.778 2C214.039 2 213.739 14 220 14C226.261 14 225.961 2 232.222 2C238.483 2 238.183 14 244.444 14C250.706 14 250.405 2 256.667 2C262.928 2 262.628 14 268.889 14C275.15 14 274.85 2 281.111 2C287.372 2 287.072 14 293.333 14C299.595 14 299.294 2 305.556 2C311.817 2 311.516 14 317.778 14C324.039 14 323.739 2 330 2C336.261 2 335.961 14 342.222 14C348.483 14 348.183 2 354.444 2C360.706 2 360.405 14 366.667 14C372.928 14 372.628 2 378.889 2C385.15 2 384.85 14 391.111 14C397.372 14 397.072 2 403.333 2C409.595 2 409.294 14 415.556 14C421.817 14 421.516 2 427.778 2C434.039 2 433.739 14 440 14C446.261 14 445.961 2 452.222 2C458.483 2 458.183 14 464.444 14C470.706 14 470.405 2 476.667 2C482.928 2 482.628 14 488.889 14C495.15 14 494.85 2 501.111 2C507.372 2 507.072 14 513.333 14C519.595 14 519.294 2 525.556 2C531.817 2 531.516 14 537.778 14C544.039 14 543.739 2 550 2C556.261 2 555.961 14 562.222 14C568.483 14 568.183 2 574.444 2C580.706 2 580.405 14 586.667 14C592.928 14 592.628 2 598.889 2C605.15 2 604.85 14 611.111 14C617.372 14 617.072 2 623.333 2C629.595 2 629.294 14 635.556 14C641.817 14 641.516 2 647.778 2C654.039 2 653.739 14 660 14C666.261 14 665.961 2 672.222 2C678.483 2 678.183 14 684.444 14C690.706 14 690.405 2 696.667 2C702.928 2 702.628 14 708.889 14C715.15 14 714.85 2 721.111 2C727.372 2 727.072 14 733.333 14C739.595 14 739.294 2 745.556 2C751.817 2 751.516 14 757.778 14C764.039 14 763.739 2 770 2" stroke="#FF6C6C" stroke-width="3" stroke-linecap="round"/>
</g>
<defs>
<clipPath id="clip0_1170_208">
<rect width="563" height="16" fill="white" transform="matrix(1 0 0 -1 0 16)"/>
</clipPath>
</defs>
</svg>
